# xmcd
#
# Track frame offsets: 
#        150
#        10651
#        20124
#        30171
#        40390
#        51618
#        61975
#        72994
#        77873
#        86345
#        98041
#        108044
#        117511
#        124979
#        132373
#        143182
#        147397
#        155337
#        162084
#        167679
#        177681
#
# Disc length: 2420 seconds
#
# Revision: 1
# Processed by: cddbd v1.5.2PL0 Copyright (c) Steve Scherf et al.
# Submitted via: ExactAudioCopy v1.3
#
DISCID=24097215
DTITLE=Lambert - Lambert
DYEAR=2014
DGENRE=Jazz
TTITLE0=Finally
TTITLE1=Snow Again
TTITLE2=Lucerne
TTITLE3=Requiem K
TTITLE4=Ghost
TTITLE5=Chamber
TTITLE6=Chateau Martin
TTITLE7=Run
TTITLE8=Slow Slow
TTITLE9=Fagerhult
TTITLE10=Mathilda
TTITLE11=Dance Dance
TTITLE12=Nantes
TTITLE13=The Movie
TTITLE14=Train
TTITLE15=Hope Delays A Lot
TTITLE16=Theroux
TTITLE17=The Streets
TTITLE18=No Romance
TTITLE19=Tanner
TTITLE20=Slot
EXTD=YEAR: 2014
EXTT0=
EXTT1=
EXTT2=
EXTT3=
EXTT4=
EXTT5=
EXTT6=
EXTT7=
EXTT8=
EXTT9=
EXTT10=
EXTT11=
EXTT12=
EXTT13=
EXTT14=
EXTT15=
EXTT16=
EXTT17=
EXTT18=
EXTT19=
EXTT20=
PLAYORDER=
